<svg width="48" height="48" viewBox="0 0 48 48" fill="none" xmlns="http://www.w3.org/2000/svg">
<path fill-rule="evenodd" clip-rule="evenodd" d="M21.5235 8C20.2322 8 19.0858 8.82629 18.6774 10.0513L17.8476 12.541H14C13.5267 12.541 13.1302 12.8698 13.0265 13.3115H13C12.4477 13.3115 12 13.7592 12 14.3115C12 14.8638 12.4477 15.3115 13 15.3115V38.0984C13 38.6506 13.4477 39.0984 14 39.0984H33.2459C33.7982 39.0984 34.2459 38.6506 34.2459 38.0984V15.3115C34.7982 15.3115 35.2459 14.8638 35.2459 14.3115C35.2459 13.7592 34.7982 13.3115 34.2459 13.3115H34.2194C34.1157 12.8698 33.7192 12.541 33.2459 12.541H29.3984L28.5685 10.0513C28.1601 8.82629 27.0137 8 25.7224 8H21.5235ZM16.9241 15.3115L16.9241 15.3115H18.3115H28.9344H30.3219L32.2459 15.3115V37.0984H15V15.3115H16.9241ZM27.2902 12.541L26.6711 10.6838C26.535 10.2754 26.1529 10 25.7224 10H21.5235C21.0931 10 20.7109 10.2754 20.5748 10.6838L19.9557 12.541H27.2902Z" fill="#E7EBF4"/>
</svg>
