<svg width="30" height="30" viewBox="0 0 30 30" fill="none" xmlns="http://www.w3.org/2000/svg">
<path d="M25.7625 23.9875C26.5459 22.9374 27.0835 21.7249 27.3356 20.4393C27.5877 19.1537 27.5479 17.8279 27.2192 16.5597C26.8905 15.2916 26.2812 14.1134 25.4362 13.1122C24.5913 12.111 23.5324 11.3123 22.3375 10.775C22.0773 9.27763 21.4791 7.85928 20.5886 6.62772C19.698 5.39616 18.5384 4.38379 17.1979 3.66754C15.8575 2.95129 14.3714 2.55001 12.8526 2.49418C11.3338 2.43835 9.82225 2.72944 8.43281 3.34533C7.04338 3.96123 5.8126 4.88572 4.83401 6.04857C3.85542 7.21142 3.15476 8.58203 2.78526 10.0563C2.41577 11.5305 2.38716 13.0695 2.70162 14.5565C3.01607 16.0434 3.66532 17.4391 4.60002 18.6375L2.86252 20.3625C2.68907 20.5383 2.57158 20.7615 2.52486 21.004C2.47814 21.2465 2.50429 21.4974 2.60002 21.725C2.69379 21.9533 2.85304 22.1487 3.05769 22.2866C3.26234 22.4245 3.50324 22.4988 3.75002 22.5H10.8625C11.5708 23.9933 12.6876 25.2554 14.0835 26.1402C15.4793 27.0251 17.0973 27.4966 18.75 27.5H26.25C26.4968 27.4988 26.7377 27.4245 26.9423 27.2866C27.147 27.1487 27.3062 26.9533 27.4 26.725C27.4957 26.4974 27.5219 26.2465 27.4752 26.004C27.4285 25.7615 27.311 25.5383 27.1375 25.3625L25.7625 23.9875ZM10 18.75C10.0017 19.1686 10.0352 19.5865 10.1 20H6.76252L7.20002 19.575C7.31718 19.4588 7.41017 19.3206 7.47363 19.1682C7.53709 19.0159 7.56977 18.8525 7.56977 18.6875C7.56977 18.5225 7.53709 18.3591 7.47363 18.2068C7.41017 18.0545 7.31718 17.9162 7.20002 17.8C6.49947 17.1071 5.94408 16.2816 5.56634 15.3715C5.18859 14.4615 4.99607 13.4853 5.00002 12.5C5.00002 10.5109 5.7902 8.60323 7.19672 7.1967C8.60324 5.79018 10.5109 5.00001 12.5 5.00001C14.0521 4.99068 15.5681 5.46799 16.8349 6.36484C18.1017 7.26168 19.0556 8.53298 19.5625 10C19.2875 10 19.025 10 18.75 10C16.4294 10 14.2038 10.9219 12.5628 12.5628C10.9219 14.2038 10 16.4294 10 18.75ZM23.175 25L23.2375 25.0625H18.75C17.3042 25.0599 15.904 24.5561 14.7879 23.637C13.6719 22.7179 12.909 21.4402 12.6293 20.0217C12.3495 18.6032 12.5703 17.1316 13.2539 15.8575C13.9374 14.5835 15.0416 13.5859 16.3782 13.0346C17.7148 12.4834 19.2012 12.4126 20.5842 12.8343C21.9671 13.256 23.1611 14.1442 23.9627 15.3474C24.7643 16.5507 25.1239 17.9947 24.9803 19.4334C24.8366 20.8721 24.1987 22.2164 23.175 23.2375C22.9395 23.4683 22.8047 23.7828 22.8 24.1125C22.8007 24.2779 22.8342 24.4415 22.8986 24.5938C22.9629 24.7462 23.0569 24.8842 23.175 25Z" fill="#E7EBF4"/>
</svg>
