<svg width="30" height="30" viewBox="0 0 30 30" fill="none" xmlns="http://www.w3.org/2000/svg">
<path d="M26.25 13.125H25V11.875C25 11.5435 24.8683 11.2255 24.6339 10.9911C24.3995 10.7567 24.0815 10.625 23.75 10.625C23.4185 10.625 23.1005 10.7567 22.8661 10.9911C22.6317 11.2255 22.5 11.5435 22.5 11.875V13.125H21.25C20.9185 13.125 20.6005 13.2567 20.3661 13.4911C20.1317 13.7255 20 14.0435 20 14.375C20 14.7065 20.1317 15.0245 20.3661 15.2589C20.6005 15.4933 20.9185 15.625 21.25 15.625H22.5V16.875C22.5 17.2065 22.6317 17.5245 22.8661 17.7589C23.1005 17.9933 23.4185 18.125 23.75 18.125C24.0815 18.125 24.3995 17.9933 24.6339 17.7589C24.8683 17.5245 25 17.2065 25 16.875V15.625H26.25C26.5815 15.625 26.8995 15.4933 27.1339 15.2589C27.3683 15.0245 27.5 14.7065 27.5 14.375C27.5 14.0435 27.3683 13.7255 27.1339 13.4911C26.8995 13.2567 26.5815 13.125 26.25 13.125ZM16.625 15.275C17.292 14.6977 17.8269 13.9836 18.1936 13.1813C18.5602 12.379 18.75 11.5071 18.75 10.625C18.75 8.9674 18.0915 7.37769 16.9194 6.20558C15.7473 5.03348 14.1576 4.375 12.5 4.375C10.8424 4.375 9.25269 5.03348 8.08058 6.20558C6.90848 7.37769 6.25 8.9674 6.25 10.625C6.24999 11.5071 6.43975 12.379 6.80641 13.1813C7.17306 13.9836 7.70803 14.6977 8.375 15.275C6.62517 16.0674 5.14058 17.3469 4.09873 18.9607C3.05687 20.5744 2.50184 22.4541 2.5 24.375C2.5 24.7065 2.6317 25.0245 2.86612 25.2589C3.10054 25.4933 3.41848 25.625 3.75 25.625C4.08152 25.625 4.39946 25.4933 4.63388 25.2589C4.8683 25.0245 5 24.7065 5 24.375C5 22.3859 5.79018 20.4782 7.1967 19.0717C8.60322 17.6652 10.5109 16.875 12.5 16.875C14.4891 16.875 16.3968 17.6652 17.8033 19.0717C19.2098 20.4782 20 22.3859 20 24.375C20 24.7065 20.1317 25.0245 20.3661 25.2589C20.6005 25.4933 20.9185 25.625 21.25 25.625C21.5815 25.625 21.8995 25.4933 22.1339 25.2589C22.3683 25.0245 22.5 24.7065 22.5 24.375C22.4982 22.4541 21.9431 20.5744 20.9013 18.9607C19.8594 17.3469 18.3748 16.0674 16.625 15.275ZM12.5 14.375C11.7583 14.375 11.0333 14.1551 10.4166 13.743C9.79993 13.331 9.31928 12.7453 9.03545 12.0601C8.75162 11.3748 8.67736 10.6208 8.82206 9.89341C8.96675 9.16598 9.3239 8.4978 9.84835 7.97335C10.3728 7.4489 11.041 7.09175 11.7684 6.94706C12.4958 6.80236 13.2498 6.87662 13.9351 7.16045C14.6203 7.44428 15.206 7.92493 15.618 8.54161C16.0301 9.1583 16.25 9.88332 16.25 10.625C16.25 11.6196 15.8549 12.5734 15.1517 13.2767C14.4484 13.9799 13.4946 14.375 12.5 14.375Z" fill="#E7EBF4"/>
</svg>
