<svg width="25" height="25" viewBox="0 0 25 25" fill="none" xmlns="http://www.w3.org/2000/svg">
<path fill-rule="evenodd" clip-rule="evenodd" d="M24.3657 5.1443C25 6.67573 25 8.61715 25 12.5C25 16.3828 25 18.3243 24.3657 19.8557C23.5199 21.8976 21.8976 23.5199 19.8557 24.3657C18.3243 25 16.3828 25 12.5 25H8.33333C4.40496 25 2.44078 25 1.22039 23.7796C0 22.5592 0 20.595 0 16.6667V12.5C0 8.61715 0 6.67573 0.634337 5.1443C1.48012 3.1024 3.1024 1.48012 5.1443 0.634337C6.67573 0 8.61715 0 12.5 0C16.3828 0 18.3243 0 19.8557 0.634337C21.8976 1.48012 23.5199 3.1024 24.3657 5.1443ZM7.33268 9.72175C7.33268 9.16947 7.7804 8.72175 8.33268 8.72175H16.666C17.2183 8.72175 17.666 9.16947 17.666 9.72175C17.666 10.274 17.2183 10.7218 16.666 10.7218H8.33268C7.7804 10.7218 7.33268 10.274 7.33268 9.72175ZM7.33268 15.2773C7.33268 14.725 7.7804 14.2773 8.33268 14.2773H12.4993C13.0516 14.2773 13.4993 14.725 13.4993 15.2773C13.4993 15.8296 13.0516 16.2773 12.4993 16.2773H8.33268C7.7804 16.2773 7.33268 15.8296 7.33268 15.2773Z" fill="#E7EBF4"/>
</svg>
