<svg width="30" height="30" viewBox="0 0 30 30" fill="none" xmlns="http://www.w3.org/2000/svg">
<path d="M13.5 9C13.5 11.4853 11.4853 13.5 9 13.5C6.51472 13.5 4.5 11.4853 4.5 9C4.5 6.51472 6.51472 4.5 9 4.5C11.4853 4.5 13.5 6.51472 13.5 9Z" fill="#E7EBF4"/>
<path d="M25.5 9C25.5 11.4853 23.4853 13.5 21 13.5C18.5147 13.5 16.5 11.4853 16.5 9C16.5 6.51472 18.5147 4.5 21 4.5C23.4853 4.5 25.5 6.51472 25.5 9Z" fill="#E7EBF4"/>
<path d="M19.3937 25.5C19.4638 25.0101 19.5 24.5093 19.5 24C19.5 21.5472 18.659 19.2909 17.2496 17.5036C18.3529 16.8653 19.6338 16.5 21 16.5C25.1422 16.5 28.5 19.8579 28.5 24V25.5H19.3937Z" fill="#E7EBF4"/>
<path d="M9 16.5C13.1421 16.5 16.5 19.8579 16.5 24V25.5H1.5V24C1.5 19.8579 4.85786 16.5 9 16.5Z" fill="#E7EBF4"/>
</svg>
