<svg width="30" height="30" viewBox="0 0 30 30" fill="none" xmlns="http://www.w3.org/2000/svg">
<path fill-rule="evenodd" clip-rule="evenodd" d="M13.75 22.5C18.5825 22.5 22.5 18.5825 22.5 13.75C22.5 8.91751 18.5825 5 13.75 5C8.91751 5 5 8.91751 5 13.75C5 18.5825 8.91751 22.5 13.75 22.5ZM13.75 7.75C12.9621 7.75 12.1819 7.90519 11.4539 8.20672C10.7259 8.50825 10.0645 8.95021 9.50736 9.50736C8.95021 10.0645 8.50825 10.7259 8.20672 11.4539C7.90519 12.1819 7.75 12.9621 7.75 13.75C7.75 14.3023 8.19772 14.75 8.75 14.75C9.30228 14.75 9.75 14.3023 9.75 13.75C9.75 13.2247 9.85346 12.7046 10.0545 12.2193C10.2555 11.734 10.5501 11.293 10.9216 10.9216C11.293 10.5501 11.734 10.2555 12.2193 10.0545C12.7046 9.85346 13.2247 9.75 13.75 9.75C14.3023 9.75 14.75 9.30228 14.75 8.75C14.75 8.19772 14.3023 7.75 13.75 7.75Z" fill="#E7EBF4"/>
<path d="M25 25L22.5 22.5" stroke="#E7EBF4" stroke-width="2" stroke-linecap="round"/>
</svg>
